<?xml version="1.0" standalone="no"?>
<!DOCTYPE svg PUBLIC "-//W3C//DTD SVG 1.0//EN" "http://www.w3.org/TR/2001/REC-SVG-20010904/DTD/svg10.dtd">
<svg xmlns="http://www.w3.org/2000/svg" xmlns:xlink="http://www.w3.org/1999/xlink" id="body_1" width="1024" height="768">

<g transform="matrix(1.5000118 0 0 1.5000118 127.999985 -0)">
	<g>
		<g>
            <path d="M467.01 65.355C 437.015 35.514004 397.711 20.598003 358.398 20.598003C 321.61902 20.598003 285.139 34.192 255.99802 60.312004C 226.84802 34.191 190.37701 20.598003 153.59802 20.598003C 114.28502 20.598003 74.98003 35.514004 44.986023 65.355C -14.994976 125.02901 -14.994976 221.788 44.986023 281.47L44.986023 281.47L255.99802 491.399L467.01 281.47C 526.991 221.788 526.991 125.037 467.01 65.355zM448.919 263.465L255.998 455.379L63.085 263.456C 13.181999 213.801 13.181999 133.01599 63.085 83.36C 87.259995 59.305 119.405 46.061 153.59799 46.061C 184.80399 46.061 213.997 57.564003 237.293 77.779L237.293 77.779L255.998 95.196L274.712 77.787994C 298.008 57.572994 327.201 46.069992 358.407 46.069992C 392.6 46.069992 424.737 59.31399 448.92 83.36899C 498.831 133.016 498.822 213.809 448.919 263.465z" stroke="none" fill="#000000" fill-rule="nonzero" />
		</g>
	</g>
	<g>
	</g>
	<g>
	</g>
	<g>
	</g>
	<g>
	</g>
	<g>
	</g>
	<g>
	</g>
	<g>
	</g>
	<g>
	</g>
	<g>
	</g>
	<g>
	</g>
	<g>
	</g>
	<g>
	</g>
	<g>
	</g>
	<g>
	</g>
	<g>
	</g>
</g>
</svg>