<?xml version="1.0" standalone="no"?>
<!DOCTYPE svg PUBLIC "-//W3C//DTD SVG 1.0//EN" "http://www.w3.org/TR/2001/REC-SVG-20010904/DTD/svg10.dtd">
<svg xmlns="http://www.w3.org/2000/svg" xmlns:xlink="http://www.w3.org/1999/xlink" id="body_1" width="1024" height="768">

<g transform="matrix(1.498917 0 0 1.498917 127.99999 -0)">
	<g>
		<g>
            <path d="M475.524 72.933C 441.65198 36.64 403.40198 16.153 359.94098 16.153C 317.633 16.153 280.85797 35.486 256.19897 68.43C 231.60797 35.462 194.99097 16.153 152.70898 16.153C 109.54498 16.153 71.93498 36.428 37.279984 72.769C -14.590015 127.12599 -14.782017 227.782 52.204983 294.768C 65.207985 307.771 97.597984 341.09 143.29898 388.383C 165.23299 411.083 187.97298 434.66 210.68597 458.237C 218.63597 466.489 226.01398 474.152 232.63298 481.029C 239.43898 488.102 239.43898 488.102 240.94998 489.672C 249.34299 498.398 263.30698 498.398 271.701 489.672C 273.211 488.102 273.211 488.102 280.017 481.029C 286.636 474.15198 294.014 466.49 301.964 458.237C 324.677 434.66 347.417 411.083 368.679 389.079C 415.052 341.08902 447.442 307.771 460.44498 294.76703C 527.176 228.038 526.702 127.752 475.524 72.933zM430.275 264.599C 417.022 277.852 384.586 311.218 338.669 358.736C 316.717 381.45398 293.963 405.046 271.23602 428.638C 266.00003 434.073 261.01202 439.253 256.32602 444.12C 251.63902 439.25198 246.65102 434.073 241.41502 428.638C 218.68802 405.046 195.93303 381.454 174.65503 359.43298C 128.06403 311.218 95.62903 277.85297 82.37603 264.59998C 31.961 214.185 32.102 140 68.154 102.22C 95.464 73.58 122.843994 58.82 152.709 58.82C 190.468 58.82 221.14 81.338 236.317 120.011C 243.40201 138.064 268.95 138.064 276.035 120.011C 291.178 81.425 322.098 58.82 359.94202 58.82C 390.10803 58.82 417.867 73.688 444.33502 102.048004C 480.097 140.355 480.447 214.426 430.275 264.599z" stroke="none" fill="#000000" fill-rule="nonzero" />
		</g>
	</g>
	<g>
	</g>
	<g>
	</g>
	<g>
	</g>
	<g>
	</g>
	<g>
	</g>
	<g>
	</g>
	<g>
	</g>
	<g>
	</g>
	<g>
	</g>
	<g>
	</g>
	<g>
	</g>
	<g>
	</g>
	<g>
	</g>
	<g>
	</g>
	<g>
	</g>
</g>
</svg>