<?xml version="1.0" encoding="UTF-8"?>
<svg xmlns="http://www.w3.org/2000/svg" xmlns:xlink="http://www.w3.org/1999/xlink" width="28px" height="28px" viewBox="0 0 28 28" version="1.1">
<g id="surface1">
<path style=" stroke:none;fill-rule:nonzero;fill:rgb(66.666667%,69.411765%,72.941176%);fill-opacity:1;" d="M 20.167969 8.742188 L 20.167969 10.640625 C 19.269531 10.640625 18.269531 10.546875 18.269531 10.546875 C 14.902344 10.070312 12.054688 7.886719 10.679688 4.898438 C 10.679688 4.898438 10.203125 3.855469 10.203125 2.574219 L 11.628906 1.148438 C 11.628906 1.148438 12.578125 4.945312 14.472656 6.84375 C 16.371094 8.742188 20.167969 8.742188 20.167969 8.742188 "/>
<path style=" stroke:none;fill-rule:nonzero;fill:rgb(100%,45.490196%,45.490196%);fill-opacity:1;" d="M 23.015625 21.082031 L 23.964844 21.082031 C 26.148438 21.082031 27.761719 22.742188 27.761719 24.878906 L 19.21875 24.878906 L 3.558594 9.214844 L 10.203125 2.574219 C 10.203125 3.855469 10.679688 4.898438 10.679688 4.898438 C 12.054688 7.886719 14.902344 10.070312 18.269531 10.546875 C 18.269531 10.546875 19.269531 10.640625 20.167969 10.640625 L 20.167969 18.234375 Z M 23.015625 21.082031 "/>
<path style=" stroke:none;fill-rule:nonzero;fill:rgb(100%,87.843137%,47.45098%);fill-opacity:1;" d="M 18.222656 13.488281 C 18.222656 13.726562 18.035156 13.960938 17.75 13.960938 C 17.464844 13.960938 17.273438 13.726562 17.273438 13.488281 C 17.273438 13.25 17.464844 13.011719 17.75 13.011719 C 18.035156 13.011719 18.222656 13.25 18.222656 13.488281 Z M 17.75 17.757812 C 17.464844 17.757812 17.273438 17.523438 17.273438 17.285156 C 17.273438 17.046875 17.464844 16.808594 17.75 16.808594 C 18.035156 16.808594 18.222656 17.046875 18.222656 17.285156 C 18.222656 17.523438 18.035156 17.757812 17.75 17.757812 Z M 17.75 17.757812 "/>
<path style=" stroke:none;fill-rule:nonzero;fill:rgb(92.54902%,95.686275%,96.862745%);fill-opacity:1;" d="M 27.761719 24.878906 L 27.761719 25.828125 C 27.761719 26.394531 27.335938 26.777344 26.8125 26.777344 L 19.03125 26.777344 C 18.269531 26.777344 17.796875 26.300781 17.796875 26.300781 L 2.941406 11.445312 C 2.515625 11.019531 2.515625 10.261719 2.894531 9.882812 L 3.558594 9.214844 L 19.21875 24.878906 Z M 27.761719 24.878906 "/>
<path style=" stroke:none;fill-rule:nonzero;fill:rgb(31.764706%,33.72549%,37.254902%);fill-opacity:1;" d="M 26.8125 27.011719 L 18.984375 27.011719 C 18.175781 27.011719 17.605469 26.492188 17.605469 26.492188 L 2.753906 11.636719 C 2.515625 11.398438 2.371094 11.019531 2.324219 10.6875 C 2.324219 10.308594 2.46875 9.976562 2.707031 9.738281 L 3.320312 9.121094 L 11.390625 1.054688 C 11.4375 1.007812 11.53125 0.957031 11.628906 1.007812 C 11.722656 1.007812 11.769531 1.101562 11.816406 1.195312 C 11.816406 1.242188 12.765625 4.945312 14.617188 6.796875 C 16.421875 8.601562 20.121094 8.648438 20.121094 8.648438 C 20.265625 8.648438 20.359375 8.742188 20.359375 8.882812 L 20.359375 18.28125 L 21.261719 19.183594 C 21.355469 19.277344 21.355469 19.421875 21.261719 19.515625 C 21.167969 19.609375 21.023438 19.609375 20.929688 19.515625 L 19.980469 18.566406 C 19.933594 18.519531 19.933594 18.472656 19.933594 18.375 L 19.933594 17.664062 L 18.414062 17.664062 C 18.320312 17.949219 18.035156 18.136719 17.75 18.136719 C 17.371094 18.136719 17.039062 17.804688 17.039062 17.425781 C 17.039062 17.046875 17.371094 16.714844 17.75 16.714844 C 18.082031 16.714844 18.320312 16.90625 18.414062 17.1875 L 19.933594 17.1875 L 19.933594 13.867188 L 18.414062 13.867188 C 18.320312 14.152344 18.035156 14.34375 17.75 14.34375 C 17.371094 14.34375 17.039062 14.011719 17.039062 13.628906 C 17.039062 13.25 17.371094 12.917969 17.75 12.917969 C 18.082031 12.917969 18.320312 13.109375 18.414062 13.394531 L 19.933594 13.394531 L 19.933594 9.121094 C 19.03125 9.074219 15.992188 8.835938 14.285156 7.175781 C 12.71875 5.609375 11.769531 2.808594 11.484375 1.765625 L 3.890625 9.359375 L 19.316406 24.78125 L 27.523438 24.78125 C 27.429688 22.882812 25.910156 21.460938 23.964844 21.460938 L 21.117188 21.460938 C 20.976562 21.460938 20.882812 21.367188 20.882812 21.222656 C 20.882812 21.082031 20.976562 20.984375 21.117188 20.984375 L 23.964844 20.984375 C 26.242188 20.984375 28 22.742188 28 25.019531 L 28 25.96875 C 28 26.492188 27.476562 27.011719 26.8125 27.011719 Z M 3.558594 9.546875 L 3.085938 10.023438 C 2.941406 10.164062 2.847656 10.402344 2.847656 10.640625 C 2.847656 10.878906 2.941406 11.113281 3.132812 11.257812 L 17.988281 26.113281 C 17.988281 26.113281 18.414062 26.539062 19.03125 26.539062 L 26.859375 26.539062 C 27.289062 26.539062 27.574219 26.253906 27.574219 25.828125 L 27.574219 25.113281 L 19.21875 25.113281 C 19.171875 25.113281 19.078125 25.066406 19.03125 25.066406 Z M 17.75 17.046875 C 17.605469 17.046875 17.511719 17.140625 17.511719 17.285156 C 17.511719 17.425781 17.605469 17.523438 17.75 17.523438 C 17.890625 17.523438 17.988281 17.425781 17.988281 17.285156 C 17.988281 17.140625 17.890625 17.046875 17.75 17.046875 Z M 17.75 13.25 C 17.605469 13.25 17.511719 13.34375 17.511719 13.488281 C 17.511719 13.628906 17.605469 13.726562 17.75 13.726562 C 17.890625 13.726562 17.988281 13.628906 17.988281 13.488281 C 17.988281 13.34375 17.890625 13.25 17.75 13.25 Z M 10.679688 23.214844 L 2.136719 23.214844 C 1.992188 23.214844 1.898438 23.121094 1.898438 22.980469 C 1.898438 22.835938 1.992188 22.742188 2.136719 22.742188 L 10.679688 22.742188 C 10.820312 22.742188 10.914062 22.835938 10.914062 22.980469 C 10.914062 23.121094 10.820312 23.214844 10.679688 23.214844 Z M 7.832031 20.371094 L 0.238281 20.371094 C 0.09375 20.371094 0 20.273438 0 20.132812 C 0 19.988281 0.09375 19.894531 0.238281 19.894531 L 7.832031 19.894531 C 7.972656 19.894531 8.066406 19.988281 8.066406 20.132812 C 8.066406 20.273438 7.972656 20.371094 7.832031 20.371094 Z M 15.421875 18.472656 C 15.28125 18.472656 15.1875 18.375 15.1875 18.234375 L 15.1875 12.539062 C 15.1875 12.394531 15.28125 12.300781 15.421875 12.300781 C 15.566406 12.300781 15.660156 12.394531 15.660156 12.539062 L 15.660156 18.234375 C 15.660156 18.375 15.566406 18.472656 15.421875 18.472656 Z M 4.984375 17.523438 L 1.1875 17.523438 C 1.042969 17.523438 0.949219 17.425781 0.949219 17.285156 C 0.949219 17.140625 1.042969 17.046875 1.1875 17.046875 L 4.984375 17.046875 C 5.125 17.046875 5.21875 17.140625 5.21875 17.285156 C 5.21875 17.425781 5.125 17.523438 4.984375 17.523438 Z M 18.269531 10.78125 C 18.269531 10.78125 18.222656 10.78125 18.269531 10.78125 C 14.808594 10.308594 11.910156 8.125 10.441406 4.992188 C 10.394531 4.851562 10.441406 4.753906 10.535156 4.660156 C 10.679688 4.613281 10.773438 4.660156 10.867188 4.753906 C 12.242188 7.746094 15.042969 9.785156 18.269531 10.261719 C 18.414062 10.261719 18.507812 10.402344 18.460938 10.546875 C 18.460938 10.6875 18.367188 10.78125 18.269531 10.78125 Z M 18.269531 10.78125 "/>
</g>
</svg>
