<svg xmlns="http://www.w3.org/2000/svg" width="28" height="28"><defs><clipPath id="b" clipPathUnits="userSpaceOnUse"><path fill="#3b3c3d" d="m 868,600.36218 c -62.66807,21.04603 -59.64182,119.47043 -74,184 -2.61035,11.7316 -2,36 -2,36 0,0 33.73437,17.46248 52,22 29.87439,7.42135 61.26875,6.22635 92,8 46.60815,2.68999 93.3313,2.74006 140,4 78.6634,2.12372 157.308,6.12376 236,6 23.3428,-0.0367 70,-2 70,-2 0,0 13.6144,11.71149 22,14 37.9674,10.36168 78.8781,0.28541 118,-4 39.7732,-4.35675 81.4665,-5.68469 118,-22 9.9838,-4.45861 21.1698,-10.19057 26,-20 3.8285,-7.77519 2.9136,-17.83777 0,-26 -3.1854,-8.92362 -10.0583,-16.83212 -18,-22 -79.9813,-52.04585 -188.1878,-38.65293 -276,-76 -64.9166,-27.60944 -121.8726,-71.10635 -182,-108 -27.5868,-16.92702 -82,-52 -82,-52 l -4,24 c 0,0 29.2248,13.96498 24,24 -5.3147,10.20775 -22.9345,-9.16231 -34,-6 -33.5901,9.59945 -45.3752,57.50724 -78,70 -18.0549,6.91363 -39.36818,5.16072 -58,0 -33.71625,-9.33886 -56.8346,-65.13805 -90,-54 z"/></clipPath><clipPath id="a" clipPathUnits="userSpaceOnUse"><path fill="#3b3c3d" d="m 1160,730.36218 c -62.6681,21.04603 -59.6418,119.47043 -74,184 -2.6103,11.7316 -2,36 -2,36 0,0 33.7344,17.46248 52,22 29.8744,7.42135 61.2688,6.22635 92,8 46.6082,2.68999 93.3313,2.74006 140,4 78.6634,2.12372 157.308,6.12376 236,6 23.3428,-0.0367 70,-2 70,-2 0,0 13.6144,11.71152 22,14.00002 37.9674,10.3617 78.8781,0.2854 118,-4.00002 39.7732,-4.35675 81.4665,-5.68469 118,-22 9.9838,-4.45861 21.1698,-10.19057 26,-20 3.8285,-7.77519 2.9136,-17.83777 0,-26 -3.1854,-8.92362 -10.0583,-16.83212 -18,-22 -79.9813,-52.04585 -188.1878,-38.65293 -276,-76 -64.9166,-27.60944 -121.8726,-71.10635 -182,-108 -27.5868,-16.92702 -82,-52 -82,-52 l -4,24 c 0,0 29.2248,13.96498 24,24 -5.3147,10.20775 -22.9345,-9.16231 -34,-6 -33.5901,9.59945 -45.3752,57.50724 -78,70 -18.0549,6.91363 -39.3682,5.16072 -58,0 -33.7162,-9.33886 -56.8346,-65.13805 -90,-54 z"/></clipPath></defs><g transform="matrix(.5 0 0 .5 635.084 -192.05)"><g transform="translate(-265.714 71.429)"><path fill="#6b6c6d" d="m -659.3597,528.52217 c -42.576,10.73791 -47.0827,56.39103 -77.9554,69.95993 -17.9971,7.90992 -39.3456,6.88433 -57.9668,0 -32.7961,-12.12487 -56.802,-65.10076 -89.94846,-53.96909 -29.61114,9.94442 -44.5287,37.19627 -53.56303,69.95993 l 299.42219,0 14.4917,-66.89918 c -10.5008,-3.6093 -25.4419,-21.3311 -34.4802,-19.05159 z"/><path fill="#3b3c3d" d="m -888.22865,555.007 c -62.63222,21.03398 -59.60766,119.40204 -73.95764,183.89468 -2.6088,11.72488 -1.99885,35.97939 -1.99885,35.97939 0,0 33.71509,17.45248 51.97023,21.98741 29.8573,7.4171 61.23371,6.22278 91.94731,7.99542 46.5815,2.68845 93.2779,2.73849 139.9199,3.99771 78.6184,2.1225 157.2179,6.12025 235.8649,5.99656 23.3294,-0.0367 69.9599,-1.99885 69.9599,-1.99885 0,0 13.6066,11.70481 21.9874,13.992 37.9457,10.35577 78.833,0.28524 117.9325,-3.99773 39.7504,-4.35425 81.4199,-5.68143 117.9324,-21.9874 9.9781,-4.45606 21.157702,-10.18474 25.985202,-19.98855 3.8263,-7.77074 2.9119,-17.82756 0,-25.98512 -3.1836,-8.91851 -10.052602,-16.82249 -17.989702,-21.98741 -79.9356,-52.01606 -188.0801,-38.6308 -275.842,-75.95649 -64.8795,-27.59364 -121.8029,-71.06565 -181.8959,-107.93818 -27.571,-16.91733 -81.953,-51.97024 -81.953,-51.97024 l -3.9977,23.98626 c 0,0 29.208,13.95699 23.9862,23.98627 -5.3116,10.2019 -22.9213,-9.15707 -33.9805,-5.99657 -33.5709,9.59396 -45.3492,57.47432 -77.9554,69.95993 -18.0445,6.90967 -39.3456,5.15777 -57.9668,0 -33.6969,-9.33351 -56.802,-65.10076 -89.94845,-53.96909 z"/><path fill="#b9e55d" d="m 1099.1322,809.144 c 0,0 164.2465,104.37504 255.1617,132.07835 12.6503,3.85475 26.33,7.02268 39.2556,4.40261 8.7757,-1.77887 16.4987,-7.66387 23.76,-13.20783 52.2642,-39.90378 77.3981,-124.07712 139.4608,-141.98423 7.175,-2.07023 16.2591,0.0999 21.6939,5.50327 4.2203,4.19586 5.5706,11.47553 5.1652,17.61044 -1.0708,16.2067 -15.426,28.40828 -19.6278,44.02612 -2.4834,9.23055 -6.5305,19.73789 -3.0991,28.61698 0.8394,2.17227 2.9637,4.53252 5.1652,4.40261 17.0182,-1.00425 26.1905,-23.79082 36.1565,-38.52285 6.303,-9.31736 4.5033,-26.42306 14.4626,-30.81829 5.0302,-2.21992 10.6954,2.76604 15.4957,5.50327 3.4615,1.97384 8.0964,3.72192 9.2973,7.70457 2.966,9.8364 -6.264,19.6083 -8.2643,29.71763 -2.793,14.11531 -10.4364,29.638 -5.1652,42.92546 1.3406,3.37938 4.8452,7.04015 8.2643,6.60392 15.0594,-1.92143 20.7832,-23.78849 28.9252,-37.4222 4.2996,-7.19966 3.9695,-17.92821 10.3304,-23.11371 3.0577,-2.49257 7.5936,-3.0326 11.3635,-2.20131 6.0791,1.34042 12.5665,5.17504 15.4957,11.00653 6.6618,13.26237 0,45.12677 0,45.12677 l 4.1322,9.90588 82.6435,11.00653 85.7425,-5.50327 c 0,0 36.8785,-0.14459 49.5861,-12.10718 3.0204,-2.84335 0.2937,-10.79771 4.1321,-12.10718 12.7352,-4.34446 25.4327,12.51015 33.0575,24.21436 5.6668,8.69889 86.0439,-0.34576 81.8911,9.27441 -10.6176,24.5957 -118.5574,49.89507 -142.8407,57.86542 -29.5537,9.70018 -61.1323,10.36022 -91.9408,13.20782 -43.9451,4.0618 -132.2296,5.5033 -132.2296,5.5033 0,0 8.0482,-49.48173 -3.0992,-69.34115 -1.0304,-1.836 -3.184,-3.65033 -5.1652,-3.30196 -20.4895,3.60308 -40.2886,50.63003 -40.2886,50.63003 l -40.2887,0 c 0,0 32.0304,-56.08494 18.5948,-79.24701 -1.6691,-2.87733 -6.29,-3.28495 -9.2974,-2.2013 -32.4104,11.67831 -66.1148,83.64962 -66.1148,83.64962 l -26.8592,-1.10066 c 0,0 28.309,-76.38862 29.9584,-116.6692 0.1677,-4.098 1.4778,-10.50428 -2.0661,-12.10719 -5.7142,-2.58461 -10.7232,6.77667 -15.4956,11.00653 -39.1266,34.67855 -106.4036,116.66921 -106.4036,116.66921 L 1233.4278,985.24847 1095,831.15706 l 7.2313,-17.61045 z" clip-path="url(#a)" transform="matrix(1.01412 0 0 .92834 -2066.485 -104.667)"/><path fill="#24e1ee" d="m 786,822.36218 c -6.38573,-10.24696 1.19205,-24.25721 4,-36 6.62345,-27.69912 4.34315,-69.02944 4.34315,-69.02944 0,0 84.79537,16.71688 111.65685,35.02944 19.53729,13.31936 39.41977,27.38474 54,46 11.94957,15.25658 44.8788,58.27105 34.48528,74.62742 -14.30635,22.51408 -64.70291,-14.29256 -91.31371,-16.14214 -23.4287,-1.62841 -30.16091,0.17507 -53.02943,-5.17157 C 832.89352,847.64317 795.36863,837.39569 786,822.36218 z" clip-path="url(#b)" transform="matrix(.99943 0 0 .99943 -1755.732 -45.012)"/><path fill="#6b6c6d" d="m -966.16421,766.88565 c 26.1931,-15.03587 56.49534,22.53194 86.22191,27.98397 40.147,7.36318 81.513,4.75181 122.3149,5.99657 110.9083,3.38353 221.9298,1.28425 332.8567,3.99771 18.0534,0.44161 37.2469,-4.36595 54.1394,1.99885 8.8859,3.34811 17.0469,8.02319 26.0671,10.99371 53.3711,17.57625 113.0412,2.51589 168.4335,-6.996 76.632626,-3.40862 103.224281,-82.00529 102.263202,-21.9874 -3.261,16.13174 -13.5703,31.22367 -26.067,41.97597 -24.250202,20.86485 -57.526402,28.86207 -88.227102,37.97825 -33.805,10.03795 -69.1249,14.98032 -104.2684,17.9897 -65.9275,5.64537 -132.3501,1.11126 -198.511,0 -59.5118,-0.99963 -118.94,-5.67885 -178.4594,-5.99657 -58.1642,-0.31052 -116.3232,6.12779 -174.449,3.99771 -20.8028,-0.76236 -42.02879,-0.71499 -62.15996,-5.99656 -12.73211,-3.34039 -25.24025,-8.5607 -36.09293,-15.99084 -7.79174,-5.33455 -15.55809,-11.6987 -20.05162,-19.98855 -7.78944,-14.37047 -10.07253,-31.63843 -10.02575,-47.97255 0.027,-9.53971 -2.2777,-23.2234 6.01545,-27.98397 z"/><path fill="#24e1ee" d="m -770.2962,798.86733 397.7722,3.99771 44.1272,19.51398 c 0,0 117.8697,-3.45283 177.6277,-16.91057 21.7268,-4.89298 42.77885,-18.97599 55.8466,-31.0916 7.36545,-6.82879 12.454202,-18.66678 12.454202,-18.66678 0,0 12.8444,18.73314 9.44,27.96316 -10.1613,27.54928 -46.863202,39.25779 -75.623902,45.17695 -9.8758,2.03253 -29.9829,-3.99771 -29.9829,-3.99771 l -13.992,11.99313 -23.9862,-9.99428 -17.9897,19.98856 -19.9886,-7.99543 -15.9908,13.99199 -21.9874,-11.99313 -15.9909,11.99313 -23.9862,-11.99313 -11.9931,11.99313 -379.7825,-23.98626 z"/><g transform="translate(-1881.57 -80.972)"><path fill="#384241" d="m 1530.1716,775.19061 -38.0625,-39.09189 C 1396.2879,676.2713 1326.8647,640.43863 1233,577.86218 l -3,24.5 c 97.4285,61.5704 199.0318,117.16518 300.1716,172.82843 z"/><path fill="#6b6c6d" d="M1293.1269 666.73504c-1.828-7.32096 6.4529-14.23307 12.2977-19.00554 7.1292-5.82124 16.8837-12.65977 25.7134-10.06175 7.9378 2.33561 11.4361 12.45079 14.5336 20.12351 2.9593 7.33046 8.8558 17.80093 3.3539 23.47742-2.3486 2.42315-7.3516.89264-10.0617-1.11797-2.2794-1.69097-2.8827-5.02712-3.354-7.82581-.8683-5.15791 2.1375-10.52144 1.118-15.65161-.812-4.08653-1.6222-9.90823-5.5898-11.17973-6.8263-2.18757-13.9291 5.00082-19.0056 10.06175-4.4865 4.4728-2.8675 14.97704-8.9437 16.76959-3.68 1.08562-9.1323-1.86741-10.0618-5.58986zM1373.9085 679.71691c-1.9223 5.52989 9.5317 12.6599 14.1421 13.43502 4.6104.77512 3.2801-5.20749 7.7782-3.53553 4.498 1.67196 7.437 12.38005 8.4853 18.38478 1.0483 6.00473-2.8018 12.45418-1.4142 16.26345 1.3876 3.80928 2.8186 5.49966 5.6568 5.65686 2.8382.15719 5.2148-1.20005 7.0711-5.65686 1.8563-4.45681-.8425-14.1254-2.1213-19.79899-1.2789-5.67358-1.0504-9.24825-4.9498-14.14213-3.8993-4.89388-12.9041-10.5352-19.0919-12.02082-6.1877-1.48562-13.634-4.11568-15.5563 1.41422zM1421.2846 715.07225l18.3848-4.94975-5.6568-4.24264 27.5771 14.84924-2.1213 2.82843 14.8492 26.87006-3.5355 9.89949-6.3639 0-6.364-13.43503-11.3137-25.45584-9.1924 3.53553zM1477.8532 740.52809l16.9705-6.36396 16.2635 10.6066 5.6569 3.53553 12.0208-.7071 4.9498 32.52691-8.4853 2.12132-7.0711-24.04163-11.3137-4.24264-5.6569-16.97056 2.8284 10.6066-10.6066 2.12132z"/></g></g><g transform="matrix(-1 0 0 1 -1250.622 334.286)"><path fill="#6b6c6d" d="m -659.3597,528.52217 c -42.576,10.73791 -47.0827,56.39103 -77.9554,69.95993 -17.9971,7.90992 -39.3456,6.88433 -57.9668,0 -32.7961,-12.12487 -56.802,-65.10076 -89.94846,-53.96909 -29.61114,9.94442 -44.5287,37.19627 -53.56303,69.95993 l 299.42219,0 14.4917,-66.89918 c -10.5008,-3.6093 -25.4419,-21.3311 -34.4802,-19.05159 z"/><path fill="#3b3c3d" d="m -888.22865,555.007 c -62.63222,21.03398 -59.60766,119.40204 -73.95764,183.89468 -2.6088,11.72488 -1.99885,35.97939 -1.99885,35.97939 0,0 33.71509,17.45248 51.97023,21.98741 29.8573,7.4171 61.23371,6.22278 91.94731,7.99542 46.5815,2.68845 93.2779,2.73849 139.9199,3.99771 78.6184,2.1225 157.2179,6.12025 235.8649,5.99656 23.3294,-0.0367 69.9599,-1.99885 69.9599,-1.99885 0,0 13.6066,11.70481 21.9874,13.992 37.9457,10.35577 78.833,0.28524 117.9325,-3.99773 39.7504,-4.35425 81.4199,-5.68143 117.9324,-21.9874 9.9781,-4.45606 21.157702,-10.18474 25.985202,-19.98855 3.8263,-7.77074 2.9119,-17.82756 0,-25.98512 -3.1836,-8.91851 -10.052602,-16.82249 -17.989702,-21.98741 -79.9356,-52.01606 -188.0801,-38.6308 -275.842,-75.95649 -64.8795,-27.59364 -121.8029,-71.06565 -181.8959,-107.93818 -27.571,-16.91733 -81.953,-51.97024 -81.953,-51.97024 l -3.9977,23.98626 c 0,0 29.208,13.95699 23.9862,23.98627 -5.3116,10.2019 -22.9213,-9.15707 -33.9805,-5.99657 -33.5709,9.59396 -45.3492,57.47432 -77.9554,69.95993 -18.0445,6.90967 -39.3456,5.15777 -57.9668,0 -33.6969,-9.33351 -56.802,-65.10076 -89.94845,-53.96909 z"/><path fill="#b9e55d" d="m 1099.1322,809.144 c 0,0 164.2465,104.37504 255.1617,132.07835 12.6503,3.85475 26.33,7.02268 39.2556,4.40261 8.7757,-1.77887 16.4987,-7.66387 23.76,-13.20783 52.2642,-39.90378 77.3981,-124.07712 139.4608,-141.98423 7.175,-2.07023 16.2591,0.0999 21.6939,5.50327 4.2203,4.19586 5.5706,11.47553 5.1652,17.61044 -1.0708,16.2067 -15.426,28.40828 -19.6278,44.02612 -2.4834,9.23055 -6.5305,19.73789 -3.0991,28.61698 0.8394,2.17227 2.9637,4.53252 5.1652,4.40261 17.0182,-1.00425 26.1905,-23.79082 36.1565,-38.52285 6.303,-9.31736 4.5033,-26.42306 14.4626,-30.81829 5.0302,-2.21992 10.6954,2.76604 15.4957,5.50327 3.4615,1.97384 8.0964,3.72192 9.2973,7.70457 2.966,9.8364 -6.264,19.6083 -8.2643,29.71763 -2.793,14.11531 -10.4364,29.638 -5.1652,42.92546 1.3406,3.37938 4.8452,7.04015 8.2643,6.60392 15.0594,-1.92143 20.7832,-23.78849 28.9252,-37.4222 4.2996,-7.19966 3.9695,-17.92821 10.3304,-23.11371 3.0577,-2.49257 7.5936,-3.0326 11.3635,-2.20131 6.0791,1.34042 12.5665,5.17504 15.4957,11.00653 6.6618,13.26237 0,45.12677 0,45.12677 l 4.1322,9.90588 82.6435,11.00653 85.7425,-5.50327 c 0,0 36.8785,-0.14459 49.5861,-12.10718 3.0204,-2.84335 0.2937,-10.79771 4.1321,-12.10718 12.7352,-4.34446 25.4327,12.51015 33.0575,24.21436 5.6668,8.69889 86.0439,-0.34576 81.8911,9.27441 -10.6176,24.5957 -118.5574,49.89507 -142.8407,57.86542 -29.5537,9.70018 -61.1323,10.36022 -91.9408,13.20782 -43.9451,4.0618 -132.2296,5.5033 -132.2296,5.5033 0,0 8.0482,-49.48173 -3.0992,-69.34115 -1.0304,-1.836 -3.184,-3.65033 -5.1652,-3.30196 -20.4895,3.60308 -40.2886,50.63003 -40.2886,50.63003 l -40.2887,0 c 0,0 32.0304,-56.08494 18.5948,-79.24701 -1.6691,-2.87733 -6.29,-3.28495 -9.2974,-2.2013 -32.4104,11.67831 -66.1148,83.64962 -66.1148,83.64962 l -26.8592,-1.10066 c 0,0 28.309,-76.38862 29.9584,-116.6692 0.1677,-4.098 1.4778,-10.50428 -2.0661,-12.10719 -5.7142,-2.58461 -10.7232,6.77667 -15.4956,11.00653 -39.1266,34.67855 -106.4036,116.66921 -106.4036,116.66921 L 1233.4278,985.24847 1095,831.15706 l 7.2313,-17.61045 z" clip-path="url(#a)" transform="matrix(1.01412 0 0 .92834 -2066.485 -104.667)"/><path fill="#24e1ee" d="m 786,822.36218 c -6.38573,-10.24696 1.19205,-24.25721 4,-36 6.62345,-27.69912 4.34315,-69.02944 4.34315,-69.02944 0,0 84.79537,16.71688 111.65685,35.02944 19.53729,13.31936 39.41977,27.38474 54,46 11.94957,15.25658 44.8788,58.27105 34.48528,74.62742 -14.30635,22.51408 -64.70291,-14.29256 -91.31371,-16.14214 -23.4287,-1.62841 -30.16091,0.17507 -53.02943,-5.17157 C 832.89352,847.64317 795.36863,837.39569 786,822.36218 z" clip-path="url(#b)" transform="matrix(.99943 0 0 .99943 -1755.732 -45.012)"/><path fill="#6b6c6d" d="m -966.16421,766.88565 c 26.1931,-15.03587 56.49534,22.53194 86.22191,27.98397 40.147,7.36318 81.513,4.75181 122.3149,5.99657 110.9083,3.38353 221.9298,1.28425 332.8567,3.99771 18.0534,0.44161 37.2469,-4.36595 54.1394,1.99885 8.8859,3.34811 17.0469,8.02319 26.0671,10.99371 53.3711,17.57625 113.0412,2.51589 168.4335,-6.996 76.632626,-3.40862 103.224281,-82.00529 102.263202,-21.9874 -3.261,16.13174 -13.5703,31.22367 -26.067,41.97597 -24.250202,20.86485 -57.526402,28.86207 -88.227102,37.97825 -33.805,10.03795 -69.1249,14.98032 -104.2684,17.9897 -65.9275,5.64537 -132.3501,1.11126 -198.511,0 -59.5118,-0.99963 -118.94,-5.67885 -178.4594,-5.99657 -58.1642,-0.31052 -116.3232,6.12779 -174.449,3.99771 -20.8028,-0.76236 -42.02879,-0.71499 -62.15996,-5.99656 -12.73211,-3.34039 -25.24025,-8.5607 -36.09293,-15.99084 -7.79174,-5.33455 -15.55809,-11.6987 -20.05162,-19.98855 -7.78944,-14.37047 -10.07253,-31.63843 -10.02575,-47.97255 0.027,-9.53971 -2.2777,-23.2234 6.01545,-27.98397 z"/><path fill="#24e1ee" d="m -770.2962,798.86733 397.7722,3.99771 44.1272,19.51398 c 0,0 117.8697,-3.45283 177.6277,-16.91057 21.7268,-4.89298 42.77885,-18.97599 55.8466,-31.0916 7.36545,-6.82879 12.454202,-18.66678 12.454202,-18.66678 0,0 12.8444,18.73314 9.44,27.96316 -10.1613,27.54928 -46.863202,39.25779 -75.623902,45.17695 -9.8758,2.03253 -29.9829,-3.99771 -29.9829,-3.99771 l -13.992,11.99313 -23.9862,-9.99428 -17.9897,19.98856 -19.9886,-7.99543 -15.9908,13.99199 -21.9874,-11.99313 -15.9909,11.99313 -23.9862,-11.99313 -11.9931,11.99313 -379.7825,-23.98626 z"/><g transform="translate(-1881.57 -80.972)"><path fill="#384241" d="m 1530.1716,775.19061 -38.0625,-39.09189 C 1396.2879,676.2713 1326.8647,640.43863 1233,577.86218 l -3,24.5 c 97.4285,61.5704 199.0318,117.16518 300.1716,172.82843 z"/><path fill="#6b6c6d" d="M1293.1269 666.73504c-1.828-7.32096 6.4529-14.23307 12.2977-19.00554 7.1292-5.82124 16.8837-12.65977 25.7134-10.06175 7.9378 2.33561 11.4361 12.45079 14.5336 20.12351 2.9593 7.33046 8.8558 17.80093 3.3539 23.47742-2.3486 2.42315-7.3516.89264-10.0617-1.11797-2.2794-1.69097-2.8827-5.02712-3.354-7.82581-.8683-5.15791 2.1375-10.52144 1.118-15.65161-.812-4.08653-1.6222-9.90823-5.5898-11.17973-6.8263-2.18757-13.9291 5.00082-19.0056 10.06175-4.4865 4.4728-2.8675 14.97704-8.9437 16.76959-3.68 1.08562-9.1323-1.86741-10.0618-5.58986zM1373.9085 679.71691c-1.9223 5.52989 9.5317 12.6599 14.1421 13.43502 4.6104.77512 3.2801-5.20749 7.7782-3.53553 4.498 1.67196 7.437 12.38005 8.4853 18.38478 1.0483 6.00473-2.8018 12.45418-1.4142 16.26345 1.3876 3.80928 2.8186 5.49966 5.6568 5.65686 2.8382.15719 5.2148-1.20005 7.0711-5.65686 1.8563-4.45681-.8425-14.1254-2.1213-19.79899-1.2789-5.67358-1.0504-9.24825-4.9498-14.14213-3.8993-4.89388-12.9041-10.5352-19.0919-12.02082-6.1877-1.48562-13.634-4.11568-15.5563 1.41422zM1421.2846 715.07225l18.3848-4.94975-5.6568-4.24264 27.5771 14.84924-2.1213 2.82843 14.8492 26.87006-3.5355 9.89949-6.3639 0-6.364-13.43503-11.3137-25.45584-9.1924 3.53553zM1477.8532 740.52809l16.9705-6.36396 16.2635 10.6066 5.6569 3.53553 12.0208-.7071 4.9498 32.52691-8.4853 2.12132-7.0711-24.04163-11.3137-4.24264-5.6569-16.97056 2.8284 10.6066-10.6066 2.12132z"/></g></g></g></svg>