<?xml version="1.0" encoding="UTF-8"?>
<svg xmlns="http://www.w3.org/2000/svg" xmlns:xlink="http://www.w3.org/1999/xlink" width="28px" height="28px" viewBox="0 0 28 28" version="1.1">
<g id="surface1">
<path style=" stroke:none;fill-rule:nonzero;fill:rgb(0%,0%,0%);fill-opacity:1;" d="M 18.597656 1.050781 C 18.144531 1.285156 18.128906 1.328125 18.125 2.585938 C 18.125 3.816406 18.050781 4.265625 17.761719 4.964844 C 17.433594 5.757812 16.941406 6.265625 16.023438 6.75 C 15.464844 7.042969 14.929688 7.234375 14.332031 7.355469 C 14.109375 7.40625 13.917969 7.449219 13.90625 7.453125 C 13.902344 7.464844 13.179688 9.519531 12.300781 12.03125 C 11.425781 14.542969 10.621094 16.761719 10.515625 16.964844 C 10.269531 17.433594 9.828125 17.925781 9.363281 18.226562 C 9.148438 18.371094 8.117188 18.855469 6.890625 19.386719 C 5.738281 19.890625 4.726562 20.332031 4.648438 20.371094 C 4.46875 20.464844 1.640625 22.890625 1.464844 23.105469 C 1.171875 23.457031 0.929688 24.113281 0.929688 24.554688 C 0.929688 24.640625 0.957031 24.839844 0.988281 24.988281 C 1.042969 25.238281 1.066406 25.265625 1.246094 25.320312 C 1.628906 25.433594 2.664062 25.453125 3.226562 25.351562 C 5.519531 24.953125 7.820312 23.363281 10.285156 20.480469 C 11.988281 18.488281 13.058594 17.578125 15.257812 16.242188 L 15.941406 15.820312 L 16.238281 15.28125 C 17.523438 12.910156 19.265625 11.128906 21.574219 9.84375 L 22.121094 9.539062 L 22.152344 9.285156 C 22.199219 8.996094 22.367188 8.589844 22.574219 8.289062 C 22.664062 8.160156 23.082031 7.804688 23.597656 7.421875 C 24.078125 7.066406 24.484375 6.75 24.488281 6.722656 C 24.53125 6.613281 23.609375 5.246094 22.875 4.320312 C 22.105469 3.351562 20.453125 1.765625 19.589844 1.164062 C 19.238281 0.917969 18.917969 0.878906 18.597656 1.050781 Z M 18.597656 1.050781 "/>
<path style=" stroke:none;fill-rule:nonzero;fill:rgb(0%,0%,0%);fill-opacity:1;" d="M 9.472656 4.375 C 9.40625 4.402344 9.324219 4.484375 9.296875 4.550781 C 9.257812 4.644531 9.023438 7.242188 9.023438 7.585938 C 9.023438 7.613281 9.1875 7.46875 9.394531 7.269531 C 9.792969 6.878906 10.25 6.628906 10.769531 6.507812 C 11.0625 6.4375 12 6.457031 12.484375 6.539062 L 12.691406 6.578125 L 12.589844 6.300781 C 12.292969 5.523438 11.835938 4.925781 11.320312 4.652344 C 10.824219 4.386719 9.820312 4.238281 9.472656 4.375 Z M 9.472656 4.375 "/>
<path style=" stroke:none;fill-rule:nonzero;fill:rgb(0%,0%,0%);fill-opacity:1;" d="M 10.777344 7.46875 C 10.230469 7.660156 9.820312 8.054688 9.566406 8.617188 C 9.476562 8.808594 9.40625 8.992188 9.40625 9.019531 C 9.40625 9.046875 9.609375 9.007812 9.855469 8.9375 C 10.457031 8.761719 10.679688 8.761719 10.824219 8.945312 C 10.96875 9.136719 10.96875 9.367188 10.816406 9.539062 C 10.71875 9.640625 10.496094 9.730469 9.871094 9.898438 C 9.421875 10.023438 9.011719 10.148438 8.96875 10.171875 C 8.890625 10.214844 8.4375 11.25 8.480469 11.289062 C 8.492188 11.296875 8.789062 11.222656 9.132812 11.125 C 9.476562 11.023438 9.804688 10.9375 9.855469 10.9375 C 9.902344 10.9375 10.019531 11.003906 10.113281 11.078125 C 10.238281 11.183594 10.28125 11.265625 10.28125 11.402344 C 10.28125 11.734375 10.171875 11.796875 9.027344 12.128906 L 7.972656 12.441406 L 7.738281 13 C 7.605469 13.3125 7.515625 13.5625 7.523438 13.5625 C 7.535156 13.5625 7.898438 13.464844 8.324219 13.34375 C 8.753906 13.222656 9.160156 13.125 9.230469 13.125 C 9.421875 13.125 9.625 13.359375 9.625 13.578125 C 9.625 13.921875 9.53125 13.972656 8.234375 14.34375 L 7.039062 14.683594 L 6.804688 15.246094 C 6.675781 15.554688 6.59375 15.804688 6.621094 15.804688 C 6.65625 15.804688 7.066406 15.695312 7.535156 15.558594 C 8.007812 15.421875 8.453125 15.3125 8.535156 15.3125 C 8.777344 15.3125 8.96875 15.503906 8.96875 15.746094 C 8.96875 15.996094 8.828125 16.160156 8.542969 16.238281 C 8.433594 16.269531 7.835938 16.4375 7.222656 16.613281 L 6.101562 16.9375 L 5.65625 18.007812 C 5.410156 18.597656 5.21875 19.085938 5.226562 19.085938 C 5.273438 19.085938 8.285156 17.761719 8.589844 17.609375 C 8.984375 17.40625 9.421875 16.992188 9.652344 16.601562 C 9.738281 16.457031 10.5 14.351562 11.347656 11.925781 L 12.890625 7.519531 L 12.28125 7.453125 C 11.457031 7.367188 11.0625 7.371094 10.777344 7.46875 Z M 10.777344 7.46875 "/>
<path style=" stroke:none;fill-rule:nonzero;fill:rgb(0%,0%,0%);fill-opacity:1;" d="M 24.171875 8.148438 C 23.515625 8.640625 23.355469 8.789062 23.214844 9.027344 C 23.074219 9.28125 23.050781 9.378906 23.054688 9.679688 C 23.066406 10.003906 23.128906 10.183594 23.785156 11.753906 C 24.175781 12.699219 24.5 13.480469 24.5 13.496094 C 24.5 13.558594 25.386719 12.769531 25.71875 12.414062 C 26.632812 11.433594 27.230469 10.292969 27.019531 9.910156 C 26.988281 9.84375 26.773438 9.652344 26.546875 9.484375 C 26.027344 9.089844 25.589844 8.601562 25.234375 8.023438 L 24.960938 7.5625 Z M 24.171875 8.148438 "/>
<path style=" stroke:none;fill-rule:nonzero;fill:rgb(0%,0%,0%);fill-opacity:1;" d="M 21.804688 10.773438 C 19.164062 12.304688 17.214844 14.660156 16.273438 17.5 C 16.011719 18.289062 15.734375 19.539062 15.761719 19.808594 L 15.777344 19.964844 L 16.542969 19.398438 C 16.964844 19.085938 18.453125 17.988281 19.851562 16.953125 C 21.25 15.917969 22.691406 14.851562 23.050781 14.585938 C 23.410156 14.324219 23.707031 14.082031 23.707031 14.054688 C 23.707031 13.941406 22.28125 10.554688 22.230469 10.558594 C 22.203125 10.558594 22.011719 10.660156 21.804688 10.773438 Z M 21.488281 12.742188 C 21.625 12.8125 21.695312 13.011719 21.792969 13.589844 C 21.902344 14.242188 21.902344 14.257812 21.714844 14.441406 C 21.371094 14.789062 21.003906 14.550781 20.894531 13.917969 C 20.75 13.101562 20.753906 12.984375 20.90625 12.828125 C 21.054688 12.683594 21.304688 12.644531 21.488281 12.742188 Z M 19.601562 14.054688 C 19.792969 14.125 19.839844 14.246094 19.964844 14.929688 C 20.066406 15.472656 20.066406 15.542969 19.992188 15.683594 C 19.902344 15.863281 19.808594 15.914062 19.554688 15.914062 C 19.261719 15.914062 19.164062 15.75 19.042969 15.066406 C 18.925781 14.394531 18.953125 14.191406 19.199219 14.070312 C 19.359375 13.988281 19.417969 13.984375 19.601562 14.054688 Z M 19.601562 14.054688 "/>
<path style=" stroke:none;fill-rule:nonzero;fill:rgb(0%,0%,0%);fill-opacity:1;" d="M 14.617188 17.742188 C 13.25 18.675781 12.167969 19.675781 10.996094 21.082031 C 9.15625 23.300781 7.082031 24.964844 5.167969 25.757812 C 4.253906 26.136719 3.496094 26.308594 2.554688 26.347656 L 1.746094 26.386719 L 1.914062 26.609375 C 2.191406 26.992188 2.363281 27.042969 3.308594 27.039062 C 4.1875 27.039062 4.636719 26.976562 5.496094 26.757812 C 6.347656 26.539062 7.3125 26.125 8.023438 25.671875 C 8.449219 25.402344 14.617188 20.839844 14.699219 20.738281 C 14.734375 20.6875 14.765625 20.539062 14.765625 20.410156 C 14.765625 19.851562 15.023438 18.523438 15.34375 17.402344 C 15.363281 17.335938 15.355469 17.28125 15.335938 17.28125 C 15.308594 17.285156 14.984375 17.488281 14.617188 17.742188 Z M 14.617188 17.742188 "/>
</g>
</svg>
