<?xml version="1.0" standalone="no"?>
<!DOCTYPE svg PUBLIC "-//W3C//DTD SVG 20010904//EN"
 "http://www.w3.org/TR/2001/REC-SVG-20010904/DTD/svg10.dtd">
<svg version="1.0" xmlns="http://www.w3.org/2000/svg"
 width="30px" height="30px" viewBox="0 0 512.000000 512.000000"
 preserveAspectRatio="xMidYMid meet">

<g transform="translate(0.000000,512.000000) scale(0.100000,-0.100000)"
fill="#000000" stroke="none">
<path d="M3401 4928 c-83 -43 -86 -51 -87 -281 0 -225 -13 -307 -66 -435 -60
-145 -150 -238 -318 -326 -102 -54 -200 -89 -309 -111 -41 -9 -76 -17 -78 -18
-1 -2 -133 -378 -294 -837 -160 -459 -307 -865 -326 -902 -45 -86 -126 -176
-211 -231 -39 -26 -228 -115 -452 -212 -211 -92 -396 -173 -410 -180 -33 -17
-550 -461 -582 -500 -54 -64 -98 -184 -98 -265 0 -16 5 -52 11 -79 10 -46 14
-51 47 -61 70 -21 259 -24 362 -6 419 73 840 364 1291 891 311 364 507 531
909 775 l125 77 54 99 c235 433 554 759 976 994 l100 56 6 46 c8 53 39 127 77
182 16 24 93 89 187 159 88 65 162 123 163 128 8 20 -161 270 -295 439 -141
177 -443 467 -601 577 -64 45 -123 52 -181 21z"/>
<path d="M1732 4320 c-12 -5 -27 -20 -32 -32 -7 -17 -50 -492 -50 -555 0 -5
30 21 68 58 73 71 156 117 251 139 54 13 225 9 314 -6 l38 -7 -19 51 c-54 142
-138 251 -232 301 -91 49 -274 76 -338 51z"/>
<path d="M1971 3754 c-100 -35 -175 -107 -222 -210 -16 -35 -29 -68 -29 -73 0
-5 37 2 82 15 110 32 151 32 177 -2 27 -35 27 -77 -1 -108 -18 -19 -59 -35
-173 -66 -82 -23 -157 -46 -165 -50 -14 -8 -97 -197 -89 -204 2 -2 56 12 119
30 63 18 123 34 132 34 9 0 30 -12 47 -26 23 -19 31 -34 31 -59 0 -61 -20 -72
-229 -133 l-193 -57 -43 -102 c-24 -57 -41 -103 -39 -103 2 0 68 18 146 40 79
22 153 40 166 40 35 0 72 -43 72 -83 0 -63 -17 -72 -254 -140 l-219 -62 -43
-103 c-23 -56 -38 -102 -33 -102 6 0 81 20 167 45 86 25 168 45 183 45 44 0
79 -35 79 -79 0 -46 -26 -76 -78 -90 -20 -6 -129 -37 -241 -69 l-205 -59 -82
-196 c-45 -108 -80 -197 -78 -197 8 0 559 242 615 270 72 37 152 113 194 184
16 27 155 412 310 855 l282 806 -111 12 c-151 16 -223 15 -275 -3z"/>
<path d="M4420 3630 c-120 -90 -149 -117 -175 -161 -26 -46 -30 -64 -29 -119
2 -59 13 -92 133 -379 72 -173 131 -316 131 -319 0 -11 162 133 223 198 167
179 276 388 238 458 -6 12 -45 47 -87 78 -95 72 -175 161 -240 267 l-50 84
-144 -107z"/>
<path d="M3987 3150 c-483 -280 -839 -711 -1011 -1230 -48 -144 -99 -373 -94
-422 l3 -29 140 104 c77 57 349 258 605 447 256 189 519 384 585 433 66 48
120 92 120 97 0 21 -261 640 -270 639 -5 0 -40 -18 -78 -39z m-58 -360 c25
-13 38 -49 56 -155 20 -119 20 -122 -14 -156 -63 -63 -130 -20 -150 96 -27
149 -26 171 2 199 27 27 73 34 106 16z m-345 -240 c35 -13 44 -35 67 -160 18
-99 18 -112 5 -138 -17 -33 -34 -42 -80 -42 -54 0 -72 30 -94 155 -21 123 -16
160 29 182 29 15 40 16 73 3z"/>
<path d="M2673 1876 c-250 -171 -448 -354 -662 -611 -337 -406 -716 -710
-1066 -855 -167 -69 -306 -101 -478 -108 l-148 -7 31 -41 c51 -70 82 -79 255
-78 161 0 243 11 400 51 156 40 332 116 462 199 78 49 1206 883 1221 902 6 9
12 36 12 60 0 102 47 345 106 550 3 12 2 22 -2 22 -5 -1 -64 -38 -131 -84z"/>
</g>
</svg>
